<svg viewBox="0 0 60 78" fill="none" xmlns="http://www.w3.org/2000/svg">
<path d="M23.9267 60.6465C15.6725 57.7797 12.4929 50.6128 12.4181 41.2218V26.1219C12.4181 19.7212 13.9892 14.7538 17.1438 11.2074C22.9168 3.99114 37.0563 3.99114 42.8168 11.2074C45.9589 14.7538 47.5424 19.7212 47.5424 26.1219V41.2218C47.5424 46.8564 46.3205 51.4037 43.8891 54.8759L48.4901 61.2025C63.066 49.9085 63.4899 22.106 51.5075 8.97088C43.515 -0.123631 28.8145 -2.24898 17.8919 2.3477C1.1589 8.97088 -2.80614 30.6692 1.7574 46.4486C5.23616 58.6323 15.5727 67.2943 28.5027 67.2078L23.9392 60.6465H23.9267Z" fill="currentColor" fill-opacity="0.8"/>
<path d="M34.0761 49.6611L47.8042 68.5421C49.0635 70.2226 50.3228 71.3718 51.5822 71.9896C53.253 73.0523 56.5572 73.077 58.8514 73.0152V77.9579C54.3502 77.9085 46.1957 78.4769 42.8042 76.1909C40.7219 75.0047 38.7394 73.0523 36.8566 70.3215L22.4678 49.6611H34.0761Z" fill="#FFFF00"/>
</svg>
